<?xml version="1.0" standalone="no"?>
<!DOCTYPE svg PUBLIC "-//W3C//DTD SVG 20010904//EN"
 "http://www.w3.org/TR/2001/REC-SVG-20010904/DTD/svg10.dtd">
<svg version="1.0" xmlns="http://www.w3.org/2000/svg"
 width="512.000000pt" height="512.000000pt" viewBox="0 0 512.000000 512.000000"
 preserveAspectRatio="xMidYMid meet">
<g transform="translate(0.000000,512.000000) scale(0.100000,-0.100000)"
fill="#222" stroke="none">
<path d="M0 2560 l0 -2560 2560 0 2560 0 0 2560 0 2560 -2560 0 -2560 0 0
-2560z m2270 1110 l0 -150 -585 0 -585 0 0 -380 0 -380 505 0 505 0 0 -145 0
-145 -502 -2 -503 -3 0 -435 0 -435 583 -3 582 -2 0 -145 0 -145 -755 0 -755
0 0 1260 0 1260 755 0 755 0 0 -150z m2040 18 l0 -133 -665 -972 c-366 -535
-665 -975 -665 -978 0 -3 311 -5 690 -5 l690 0 0 -150 0 -150 -890 0 -890 0 0
133 0 132 665 970 c365 534 664 973 665 978 0 4 -286 7 -635 7 l-635 0 0 150
0 150 835 0 835 0 0 -132z"/>
</g>
</svg>
